<svg xmlns="http://www.w3.org/2000/svg" width="17.089" height="18.553" viewBox="0 0 17.089 18.553"><defs><style>.a{fill:#4e73df;}</style></defs><path class="a" d="M218.322,242.5H205.147a1.963,1.963,0,0,0-1.956,1.958v1.608a2.789,2.789,0,0,0,.819,1.979l4.873,4.869a.562.562,0,0,1,.164.392v6.625a1.122,1.122,0,0,0,1.118,1.123h0a1.114,1.114,0,0,0,.732-.272l2.345-2.009a2.785,2.785,0,0,0,.969-2.121v-3.324a.561.561,0,0,1,.17-.4l5.042-4.864a2.823,2.823,0,0,0,.853-2.01v-1.6A1.96,1.96,0,0,0,218.322,242.5Zm-7.847,8.83-4.874-4.871a.54.54,0,0,1-.161-.391v-1.326l12.6-.006v1.309a.56.56,0,0,1-.17.4l-5.042,4.865a2.823,2.823,0,0,0-.852,2.01v3.331a.549.549,0,0,1-.193.422l-.492.423V253.3A2.792,2.792,0,0,0,210.475,251.33Z" transform="translate(-203.191 -242.5)"/></svg>