<svg xmlns="http://www.w3.org/2000/svg" width="25" height="22" viewBox="0 0 25 22"><defs><style>.a{fill:rgba(11,207,150,0.1);stroke:#0bcf96;}.b{fill:#0bcf96;}.c{stroke:none;}.d{fill:none;}</style></defs><g class="a"><rect class="c" width="25" height="22" rx="4"/><rect class="d" x="0.5" y="0.5" width="24" height="21" rx="3.5"/></g><g transform="translate(6 5)"><path class="b" d="M166.939,555.942h-1.968v1.077h1.42v7.37h-7.37V562.9h-1.077v2.023a.539.539,0,0,0,.538.538h8.447a.538.538,0,0,0,.538-.538V556.48A.541.541,0,0,0,166.939,555.942Zm0,.251Z" transform="translate(-154.75 -552.615)"/><path class="b" d="M160.273,561.062h-4.446v-7.371h7.37v4.448h1.076v-4.986a.538.538,0,0,0-.538-.538h-8.446a.539.539,0,0,0-.539.538V561.6a.54.54,0,0,0,.539.538h4.984Z" transform="translate(-154.75 -552.615)"/><path class="b" d="M162.583,556.484v0a.641.641,0,0,0-.64-.64h-3.455a.581.581,0,0,0-.125.013.216.216,0,0,0-.055.016.476.476,0,0,0-.064.02.635.635,0,0,0-.063.033c-.015.008-.032.016-.047.026a.649.649,0,0,0-.177.177c-.011.016-.017.031-.026.046a.373.373,0,0,0-.053.127c-.005.019-.013.036-.017.056a.654.654,0,0,0-.012.125v3.461a.64.64,0,1,0,1.28,0v-1.91l5.114,5.115a.64.64,0,0,0,.9-.9l-5.114-5.115h1.911A.641.641,0,0,0,162.583,556.484Z" transform="translate(-154.75 -552.615)"/></g></svg>