<svg xmlns="http://www.w3.org/2000/svg" width="132.646" height="26.638" viewBox="0 0 132.646 26.638"><defs><style>.a{fill:#fff;}</style></defs><g transform="translate(-857.278 -1216.5)"><path class="a" d="M897.214,1243.681a5.526,5.526,0,1,0-5.526-5.526A5.491,5.491,0,0,0,897.214,1243.681Zm-3.192-6.711h2.049v-1.991a.459.459,0,0,1,.447-.464h1.327a.46.46,0,0,1,.45.466v1.989H900.4a.46.46,0,0,1,.45.466v1.374a.459.459,0,0,1-.448.464H898.3v2.056a.46.46,0,0,1-.447.464h-1.327a.459.459,0,0,1-.45-.466v-2.054h-2.046a.459.459,0,0,1-.45-.466v-1.374A.459.459,0,0,1,894.023,1236.97Z" transform="translate(-25.255 -11.837)"/><path class="a" d="M877.454,1251.524H861.472a2.6,2.6,0,0,1-2.576-2.612v-17.974a.809.809,0,0,0-1.617,0v17.974a4.217,4.217,0,0,0,4.194,4.229h15.983a.809.809,0,0,0,0-1.617Z" transform="translate(0 -10.003)"/><path class="a" d="M887.137,1238.593a1.218,1.218,0,1,1,0-2.436.811.811,0,0,0,.807-.827v-18.073a.76.76,0,0,0-.759-.757H870.9a2.923,2.923,0,0,0-2.026.812,2.793,2.793,0,0,0-.851,1.993v17.972a.4.4,0,0,0-.006.077v.051a2.881,2.881,0,0,0,2.875,2.846h16.272a.783.783,0,0,0,.782-.783.135.135,0,0,0,0-.03l0-.037A.809.809,0,0,0,887.137,1238.593Zm-16.211-2.467h13.669a2.806,2.806,0,0,0,.027,2.552h-13.7a1.276,1.276,0,1,1,0-2.552Zm-.922-17.7a1.3,1.3,0,0,1,.9-.361h.618v16.5H870.9a2.912,2.912,0,0,0-1.276.3V1219.3A1.229,1.229,0,0,1,870,1218.422Zm16.348-.359v16.5h-13.23v-16.5Z" transform="translate(-7.881)"/><path class="a" d="M998.843,1240.886H1009v-3.632H998.843v-4.441h11.066v-3.7H994.572v20.912h15.847v-3.76H998.843Z" transform="translate(-100.767 -9.255)"/><rect class="a" width="7.916" height="3.83" transform="translate(911.511 1230.751)"/><path class="a" d="M1110.084,1234.3a5.071,5.071,0,0,0-2.8.709,5.918,5.918,0,0,0-1.7,1.646v-7.434h-4.043V1250.1h3.986v-1.944a6.156,6.156,0,0,0,1.512,1.589,6.211,6.211,0,0,0,7.871-1.6,9.94,9.94,0,0,0,1.712-5.973,8.886,8.886,0,0,0-1.735-5.675A5.78,5.78,0,0,0,1110.084,1234.3Zm1.425,11.619a2.8,2.8,0,0,1-2.446,1.263,3.045,3.045,0,0,1-2.7-1.305,5.728,5.728,0,0,1-.887-3.292,7.45,7.45,0,0,1,.429-2.752,3.033,3.033,0,0,1,3.047-2,2.989,2.989,0,0,1,3,2.043,7.43,7.43,0,0,1,.429,2.724A5.729,5.729,0,0,1,1111.509,1245.915Z" transform="translate(-179.278 -9.334)"/><path class="a" d="M1173.115,1247.721q-3.987,0-5.945,2.452a9.595,9.595,0,0,0,0,11.617q1.958,2.416,5.945,2.417t5.944-2.417a9.6,9.6,0,0,0,0-11.617Q1177.1,1247.721,1173.115,1247.721Zm2.71,11.834a3.581,3.581,0,0,1-5.455,0,7.171,7.171,0,0,1,0-7.161,3.593,3.593,0,0,1,5.455,0,7.218,7.218,0,0,1,0,7.161Z" transform="translate(-226.008 -22.915)"/><path class="a" d="M1239.826,1247.721q-3.987,0-5.944,2.452a9.6,9.6,0,0,0,0,11.617q1.958,2.416,5.944,2.417t5.945-2.417a9.595,9.595,0,0,0,0-11.617Q1243.813,1247.721,1239.826,1247.721Zm2.71,11.834a3.581,3.581,0,0,1-5.455,0,7.172,7.172,0,0,1,0-7.161,3.594,3.594,0,0,1,5.455,0,7.221,7.221,0,0,1,0,7.161Z" transform="translate(-274.971 -22.915)"/><path class="a" d="M1310.6,1240.586l5.543-5.761h-5.028l-5.1,5.833v-11.281h-3.972v20.841h3.972v-4.866l1.675-1.741,3.747,6.607h4.921Z" transform="translate(-326.438 -9.451)"/></g></svg>