<svg xmlns="http://www.w3.org/2000/svg" width="18" height="18" viewBox="0 0 18 18"><defs><style>.a{fill:#4e73df;}</style></defs><path class="a" d="M-168.26-3319.77l-3.343-3.343a7.723,7.723,0,0,1-4.328,1.32,7.777,7.777,0,0,1-7.769-7.769,7.777,7.777,0,0,1,7.769-7.769,7.776,7.776,0,0,1,7.768,7.769,7.726,7.726,0,0,1-1.319,4.327l3.343,3.343a1.5,1.5,0,0,1,0,2.121,1.5,1.5,0,0,1-1.061.44A1.5,1.5,0,0,1-168.26-3319.77Zm-12.44-9.791a4.775,4.775,0,0,0,4.769,4.769,4.775,4.775,0,0,0,4.768-4.769,4.774,4.774,0,0,0-4.768-4.769A4.774,4.774,0,0,0-180.7-3329.561Z" transform="translate(183.7 3337.33)"/></svg>